<?xml version="1.0" encoding="iso-8859-1"?>
<!-- Generator: Adobe Illustrator 19.0.0, SVG Export Plug-In . SVG Version: 6.00 Build 0)  -->
<svg version="1.1" id="Capa_1" xmlns="http://www.w3.org/2000/svg" xmlns:xlink="http://www.w3.org/1999/xlink" x="0px" y="0px"
	 viewBox="0 0 412.8 412.8" style="enable-background:new 0 0 412.8 412.8;" xml:space="preserve">
<g>
	<g>
		<path d="M378.4,226L304,251.6l-34.8-20c0,0-0.4,0-0.4-0.4c2.8-7.2,4.4-15.6,4.4-24c0-8.4-1.6-16.4-4.4-24c0,0,0.4,0,0.4-0.4
			l34.8-20l74.4,25.6c5.2,2,11.2-1.2,12.8-6.4c2-5.2-1.2-11.2-6.4-12.8l-57.6-19.6l54-31.2c4.8-2.8,6.4-9.2,3.6-14s-9.2-6.4-14-3.6
			l-54,31.2l11.6-59.6c1.2-5.6-2.4-10.8-8-12c-5.6-1.2-10.8,2.4-12,8l-15.2,77.2l-34.8,20c0,0-0.4,0-0.4,0.4c-1.6-2-3.2-3.6-4.8-5.2
			c-9.6-9.6-22.4-16.4-36.4-18.4V142v-42L276,48.4c4.4-3.6,4.8-10,0.8-14.4c-3.6-4.4-10-4.8-14.4-0.8l-45.6,40V10.4
			c0-5.6-4.4-10.4-10.4-10.4C200.8,0,196,4.4,196,10.4v62.4l-45.6-39.6C146,29.6,139.6,30,136,34c-3.6,4.4-3.2,10.8,0.8,14.4
			L196,100v40.4v0.4c-14,2.4-26.8,8.8-36.4,18.4c-1.6,1.6-3.2,3.6-4.8,5.2c0,0-0.4,0-0.4-0.4l-34.8-20l-15.2-77.2
			c-1.2-5.6-6.4-9.2-12-8c-5.6,1.2-9.2,6.4-8,12L96,130.4L42,99.2c-4.8-2.8-11.2-1.2-14,3.6s-1.2,11.2,3.6,14l54,31.2L28,167.6
			c-5.2,2-8.4,7.6-6.4,12.8c2,5.2,7.6,8.4,12.8,6.4l74.4-25.6l34.8,20c0,0,0.4,0,0.4,0.4c-2.8,7.2-4.4,15.6-4.4,24
			c0,8.4,1.6,16.4,4.4,24c0,0-0.4,0-0.4,0.4l-34.4,20.8l-74.4-25.6c-5.2-2-11.2,1.2-12.8,6.4c-2,5.2,1.2,11.2,6.4,12.8L86,264
			l-54,31.2c-4.8,2.8-6.4,9.2-3.6,14c2.8,4.8,9.2,6.4,14,3.6l54-31.2l-11.6,59.6c-1.2,5.6,2.4,10.8,8,12c5.6,1.2,10.8-2.4,12-8
			L120,268l34.8-20c0,0,0.4,0,0.4-0.4c1.6,2,3.2,3.6,4.8,5.2c9.6,9.6,22.4,16.4,36.4,18.4v0.4V312l-59.2,51.6
			c-4.4,3.6-4.8,10-0.8,14.4c3.6,4.4,10,4.8,14.4,0.8l45.6-40v63.6c0,5.6,4.4,10.4,10.4,10.4c5.6,0,10.4-4.4,10.4-10.4V340l45.6,40
			c4.4,3.6,10.8,3.2,14.4-0.8c3.6-4.4,3.2-10.8-0.8-14.4l-59.6-52v-40.4V272c14-2.4,26.8-8.8,36.4-18.4c1.6-1.6,3.2-3.6,4.8-5.2
			c0,0,0.4,0,0.4,0.4l34.8,20l15.2,77.2c1.2,5.6,6.4,9.2,12,8c5.6-1.2,9.2-6.4,8-12l-11.6-59.6l54,31.2c4.8,2.8,11.2,1.2,14-3.6
			c2.8-4.8,1.2-11.2-3.6-14l-54-31.2l57.6-19.6c5.2-2,8.4-7.6,6.4-12.8S383.6,224,378.4,226z M238.8,238.8
			c-8.4,8.4-19.6,13.2-32.4,13.2c-12.4,0-24-5.2-32.4-13.2c-8.4-8.4-13.2-19.6-13.2-32.4c0-12.8,5.2-24,13.2-32.4
			c8.4-8.4,19.6-13.2,32.4-13.2c12.4,0,24,5.2,32.4,13.2c8.4,8.4,13.2,19.6,13.2,32.4C252,218.8,246.8,230.4,238.8,238.8z"/>
	</g>
</g>
<g>
</g>
<g>
</g>
<g>
</g>
<g>
</g>
<g>
</g>
<g>
</g>
<g>
</g>
<g>
</g>
<g>
</g>
<g>
</g>
<g>
</g>
<g>
</g>
<g>
</g>
<g>
</g>
<g>
</g>
</svg>
